<svg version="1.1" id="Layer_1" xmlns="http://www.w3.org/2000/svg" xmlns:xlink="http://www.w3.org/1999/xlink" x="0px" y="0px"
	 width="100%" viewBox="0 0 272 208" enable-background="new 0 0 272 208" xml:space="preserve">
<path fill="#000000" opacity="1.000000" stroke="none" 
	d="
M74.592545,117.442245 
	C72.924309,118.298035 71.582932,118.974449 70.321007,119.775940 
	C67.874832,121.329567 66.120552,124.722473 62.409649,121.111244 
	C56.996277,115.843262 55.386925,112.459702 58.066727,107.752579 
	C64.492554,96.465500 72.242508,85.794510 77.457695,73.991051 
	C83.885994,59.441959 94.088585,52.415016 109.566757,51.127708 
	C117.049477,50.505375 124.334419,46.857944 132.033615,50.225994 
	C131.819092,52.543484 129.778595,53.070335 128.399887,54.076519 
	C123.022972,58.000618 117.363968,61.528561 112.406776,66.032677 
	C107.514275,70.478027 104.612343,75.844772 103.730209,82.424721 
	C102.221649,93.677185 111.478912,101.460136 122.326492,97.918068 
	C128.788147,95.808136 133.925507,91.439651 139.413879,87.703972 
	C147.123306,82.456528 149.298462,82.387856 156.528198,88.413589 
	C173.413239,102.486710 190.239349,116.630608 207.065063,130.774719 
	C209.098724,132.484253 211.412338,134.170975 212.047256,136.873978 
	C212.975586,140.826111 213.494873,144.892166 209.512222,147.773727 
	C205.732468,150.508484 201.776871,150.911636 197.944626,148.053101 
	C191.539871,143.275726 185.238571,138.358688 178.927917,133.456451 
	C175.245453,130.595825 171.685074,127.575470 167.955475,124.779434 
	C166.510376,123.696060 164.772690,121.151337 162.943512,123.350571 
	C161.171021,125.481651 163.776596,126.923019 165.208298,128.075180 
	C173.770081,134.965210 182.390717,141.783249 191.055710,148.543259 
	C193.808670,150.690994 195.929718,153.111038 195.993271,156.781830 
	C196.052765,160.218231 194.648636,162.963043 191.660538,164.699966 
	C188.101364,166.768845 184.628418,166.350967 181.397415,163.885437 
	C172.926529,157.421387 164.508759,150.886810 155.979553,144.500916 
	C154.296692,143.240921 152.251328,140.003448 150.239487,142.369156 
	C147.926193,145.089340 151.874756,146.080627 153.382980,147.315247 
	C159.436554,152.270676 165.806412,156.839417 171.866943,161.786789 
	C176.788406,165.804337 177.480042,170.171509 174.331116,174.364334 
	C170.906357,178.924423 165.821487,179.674347 160.715210,175.908981 
	C152.811737,170.080917 145.123337,163.961868 137.295471,158.029892 
	C135.873550,156.952362 134.449402,155.612549 132.377121,155.997345 
	C130.641861,156.319565 130.164276,155.192810 129.580582,153.858978 
	C126.952087,147.852432 122.589409,144.214081 115.743202,144.316833 
	C113.540428,144.349915 112.545296,143.394806 111.937355,141.275635 
	C109.900551,134.175644 104.933998,130.616013 97.657730,130.285721 
	C95.357407,130.181290 94.263603,129.425644 93.493896,127.032341 
	C90.881493,118.909325 82.986214,114.936310 74.592545,117.442245 
z"/>
<path fill="#000000" opacity="1.000000" stroke="none" 
	d="
M168.432693,91.574539 
	C164.572235,88.370522 161.028458,85.342514 157.407867,82.409309 
	C151.125992,77.320053 146.407516,77.028534 139.637543,81.361160 
	C134.452087,84.679741 129.670135,88.625099 124.104897,91.355042 
	C120.043663,93.347214 115.811539,94.681602 111.928352,91.383583 
	C108.068138,88.105072 108.597610,83.652725 109.880585,79.361229 
	C111.198715,74.952156 113.613525,71.179306 117.358513,68.399597 
	C124.982803,62.740479 132.729324,57.266212 140.871307,52.353493 
	C147.840820,48.148212 155.075836,47.290585 162.898926,49.492599 
	C171.233032,51.838451 179.700424,53.693111 188.303741,54.762535 
	C191.423355,55.150318 193.481949,56.661816 194.998779,59.309864 
	C204.020370,75.059692 213.062943,90.797623 222.150162,106.509644 
	C224.123444,109.921509 223.916779,113.066345 221.817062,116.344193 
	C214.871506,127.186882 211.757416,127.779594 202.032791,119.698502 
	C190.891037,110.439758 179.817810,101.098579 168.432693,91.574539 
z"/>
<path fill="#000000" opacity="1.000000" stroke="none" 
	d="
M29.324846,84.379387 
	C37.891937,69.508698 46.265083,54.948090 54.630829,40.383224 
	C58.265236,34.055676 62.384270,32.824493 68.661308,36.368370 
	C72.424820,38.493164 76.178879,40.660999 79.767006,43.063633 
	C84.462242,46.207596 85.539078,50.308754 82.775917,55.076748 
	C72.770355,72.341888 62.704384,89.572998 52.513809,106.729401 
	C48.807335,112.969467 45.625187,113.568192 39.299870,109.834763 
	C35.718781,107.721077 32.144875,105.592781 28.616358,103.393066 
	C23.469612,100.184525 22.527342,96.635025 25.383825,91.167183 
	C26.537813,88.958252 27.874411,86.844704 29.324846,84.379387 
z"/>
<path fill="#000000" opacity="1.000000" stroke="none" 
	d="
M202.699280,62.245163 
	C200.939667,59.183556 199.248245,56.499260 197.807343,53.686615 
	C195.808640,49.785137 196.149689,46.096859 200.029984,43.605282 
	C204.507462,40.730225 209.095352,37.962955 213.872635,35.636177 
	C219.133118,33.074074 223.058945,34.358536 225.785294,39.122608 
	C235.381012,55.890320 244.969131,72.663139 254.422546,89.511215 
	C258.709747,97.151978 257.735291,100.170830 250.221786,104.508629 
	C247.192749,106.257385 244.155212,107.991737 241.139496,109.763229 
	C235.030884,113.351547 231.945892,112.770721 228.375595,106.686623 
	C219.778854,92.036972 211.366150,77.279320 202.699280,62.245163 
z"/>
<path fill="#000000" opacity="1.000000" stroke="none" 
	d="
M107.780296,153.656219 
	C109.147614,152.653244 110.179649,151.789215 111.333946,151.143875 
	C114.872871,149.165375 118.326141,149.202011 121.565041,151.850952 
	C124.931122,154.603928 125.114662,158.343979 123.777351,161.874298 
	C121.475372,167.951248 117.304161,172.727112 111.653221,176.024277 
	C108.122810,178.084167 104.547134,177.789322 101.442871,175.106232 
	C98.212067,172.313751 97.286446,168.734344 98.879486,164.718307 
	C100.648300,160.259171 103.817596,156.858719 107.780296,153.656219 
z"/>
<path fill="#000000" opacity="1.000000" stroke="none" 
	d="
M83.090157,147.369324 
	C85.721016,143.220200 88.776688,140.000381 92.592979,137.523849 
	C96.586418,134.932343 100.409859,135.181824 103.999466,138.284088 
	C107.448936,141.265274 107.332977,144.897903 105.679573,148.703140 
	C103.297714,154.184906 99.264671,158.374557 94.589035,161.867294 
	C91.523155,164.157578 87.936821,163.902023 84.769417,161.860382 
	C81.550301,159.785416 80.195450,156.641251 81.064941,152.831345 
	C81.466270,151.072815 82.279427,149.408279 83.090157,147.369324 
z"/>
<path fill="#000000" opacity="1.000000" stroke="none" 
	d="
M78.111420,146.264404 
	C72.677666,149.568970 68.941780,149.568665 65.578476,146.296265 
	C61.903912,142.721039 62.200016,138.628189 64.316269,134.396896 
	C66.691750,129.647293 70.267303,126.066971 74.850189,123.402794 
	C78.878586,121.060936 82.501953,121.726906 85.811218,124.700356 
	C89.250252,127.790398 88.856384,131.561310 87.058266,135.200058 
	C84.981514,139.402664 81.921455,142.930435 78.111420,146.264404 
z"/>
<path fill="#000000" opacity="1.000000" stroke="none" 
	d="
M122.903366,170.015320 
	C124.457108,168.246063 125.661247,166.629074 127.130066,165.305847 
	C129.942017,162.772583 133.155685,161.811600 136.717606,163.757721 
	C140.330139,165.731506 141.157898,169.023148 140.344727,172.705032 
	C139.238129,177.715439 136.652679,181.923401 132.428665,184.950150 
	C128.914658,187.468170 125.269844,187.459839 121.870476,184.775253 
	C118.307533,181.961472 118.079216,178.374298 120.082062,174.532990 
	C120.845093,173.069565 121.803787,171.708160 122.903366,170.015320 
z"/>
<path fill="#000000" opacity="1.000000" stroke="none" 
	d="
M145.944214,174.221375 
	C149.065216,172.358521 150.472488,174.726883 151.642212,176.462341 
	C152.919312,178.357132 151.071945,179.863510 149.867447,181.099213 
	C148.005310,183.009598 145.686996,184.230103 142.544952,184.618423 
	C142.574387,180.791550 144.899796,177.866867 145.944214,174.221375 
z"/>
</svg>