<?xml version="1.0" standalone="no"?>
<!DOCTYPE svg PUBLIC "-//W3C//DTD SVG 20010904//EN"
 "http://www.w3.org/TR/2001/REC-SVG-20010904/DTD/svg10.dtd">
<svg version="1.0" xmlns="http://www.w3.org/2000/svg"
 width="1024.000000pt" height="1024.000000pt" viewBox="0 0 1024.000000 1024.000000"
 preserveAspectRatio="xMidYMid meet">

<g transform="translate(0.000000,1024.000000) scale(0.100000,-0.100000)"
fill="#000000" stroke="none">
<path d="M6301 8344 c-28 -23 -31 -32 -31 -81 l0 -56 107 -109 c63 -64 113
-106 121 -103 7 3 10 0 7 -6 -7 -11 25 -40 36 -33 4 2 12 -3 19 -11 7 -8 9
-15 4 -15 -4 0 5 -13 21 -30 15 -16 32 -27 37 -24 5 3 7 0 6 -7 -2 -7 3 -13
10 -14 6 0 11 -3 10 -6 -4 -11 34 -49 43 -44 7 5 24 -13 24 -26 0 -4 39 -47
86 -97 l86 -90 -896 -896 -896 -896 -72 72 c-40 40 -73 69 -73 64 0 -5 -7 -3
-15 4 -8 7 -13 15 -10 19 7 12 -728 739 -760 751 -37 15 -112 14 -151 0 -36
-13 -1595 -1570 -1587 -1583 3 -6 2 -7 -4 -4 -5 3 -93 -78 -195 -181 -164
-166 -187 -193 -203 -241 -13 -40 -16 -68 -10 -114 7 -62 49 -162 64 -152 5 2
15 -3 22 -13 13 -15 12 -16 -3 -3 -10 7 -18 9 -18 3 0 -15 56 -60 114 -90 43
-22 64 -27 131 -27 58 0 89 5 115 19 47 24 151 127 143 140 -3 6 -2 7 2 3 10
-9 397 372 390 384 -3 4 2 12 10 19 8 7 15 9 15 5 0 -5 9 0 20 10 11 10 17 22
13 28 -3 5 -1 7 4 4 10 -6 42 21 36 30 -2 1 -1 2 2 1 9 -6 104 96 98 105 -3 6
-2 7 4 4 13 -8 136 117 126 128 -4 4 -3 5 3 2 13 -8 177 156 167 167 -4 4 -1
6 7 4 8 -2 14 3 12 10 -1 8 1 11 6 8 12 -7 84 68 75 79 -5 4 -3 5 3 2 10 -6
97 74 95 87 -1 3 2 6 7 7 15 1 41 32 35 42 -3 6 -1 7 6 3 7 -5 80 60 191 170
l180 178 174 -173 c114 -113 179 -171 187 -166 7 5 10 4 6 -2 -3 -5 119 -134
271 -285 257 -255 280 -276 326 -287 40 -10 56 -9 100 5 48 15 107 72 898 862
466 465 844 850 841 855 -3 6 -1 7 4 4 10 -6 41 20 42 36 1 4 3 6 5 5 9 -6 45
35 39 45 -3 5 -2 7 4 4 13 -8 106 87 96 98 -5 4 -3 5 3 2 14 -8 47 26 37 38
-5 4 -3 5 3 2 14 -8 57 36 47 48 -5 4 -3 5 3 2 6 -4 20 3 30 16 19 21 19 21
-1 7 -15 -11 -14 -7 4 13 25 28 43 38 21 12 -7 -9 -8 -15 -2 -15 11 0 46 49
47 65 0 6 5 10 10 10 6 0 16 4 24 9 9 6 50 -28 145 -123 72 -72 136 -132 141
-133 6 -2 9 -6 8 -9 -1 -3 80 -88 181 -188 l183 -181 53 0 c46 0 56 4 86 34
l34 34 0 854 c0 759 -2 856 -16 876 -8 12 -20 19 -26 16 -7 -4 -8 -2 -4 4 18
30 -43 32 -898 32 l-864 0 -31 -26z m1312 9 c-233 -2 -613 -2 -845 0 -233 1
-43 2 422 2 465 0 655 -1 423 -2z m-1274 -6 c-2 -1 -15 -11 -29 -22 l-25 -20
19 23 c11 12 24 22 29 22 6 0 8 -1 6 -3z m1788 -109 c-3 -8 -6 -5 -6 6 -1 11
2 17 5 13 3 -3 4 -12 1 -19z m0 -151 c-2 -23 -3 -1 -3 48 0 50 1 68 3 42 2
-26 2 -67 0 -90z m0 -204 c-2 -32 -3 -8 -3 52 0 61 1 87 3 58 2 -29 2 -78 0
-110z m0 -185 c-2 -13 -4 -5 -4 17 -1 22 1 32 4 23 2 -10 2 -28 0 -40z m0
-815 c-1 -147 -2 -29 -2 262 0 292 1 412 2 268 2 -144 2 -382 0 -530z m-1237
684 c0 -2 -10 -12 -22 -23 l-23 -19 19 23 c18 21 26 27 26 19z m-60 -60 c0 -1
-170 -171 -377 -377 l-378 -375 375 378 c348 350 380 381 380 374z m220 -600
c0 -2 -10 -12 -22 -23 l-23 -19 19 23 c18 21 26 27 26 19z m-980 -160 c0 -1
-145 -146 -322 -322 l-323 -320 320 323 c297 299 325 327 325 319z m-1993 -43
c-3 -3 -12 -4 -19 -1 -8 3 -5 6 6 6 11 1 17 -2 13 -5z m50 0 c-3 -3 -12 -4
-19 -1 -8 3 -5 6 6 6 11 1 17 -2 13 -5z m-137 -27 c0 -2 -17 -19 -37 -38 l-38
-34 34 38 c33 34 41 42 41 34z m4047 -143 c-3 -3 -12 -4 -19 -1 -8 3 -5 6 6 6
11 1 17 -2 13 -5z m-4247 -57 c0 -2 -12 -14 -27 -28 l-28 -24 24 28 c23 25 31
32 31 24z m-240 -240 c0 -2 -12 -14 -27 -28 l-28 -24 24 28 c23 25 31 32 31
24z m-100 -101 c0 -2 -8 -10 -17 -17 -16 -13 -17 -12 -4 4 13 16 21 21 21 13z
m1970 -39 c0 -1 -30 -32 -67 -67 l-68 -65 65 68 c60 62 70 72 70 64z m-2030
-21 c0 -2 -8 -10 -17 -17 -16 -13 -17 -12 -4 4 13 16 21 21 21 13z m680 -130
c0 -2 -8 -10 -17 -17 -16 -13 -17 -12 -4 4 13 16 21 21 21 13z m-70 -69 c0 -2
-10 -12 -22 -23 l-23 -19 19 23 c18 21 26 27 26 19z m1180 -20 c0 -2 -12 -14
-27 -28 l-28 -24 24 28 c23 25 31 32 31 24z m-1230 -30 c0 -2 -12 -14 -27 -28
l-28 -24 24 28 c23 25 31 32 31 24z m-60 -61 c0 -2 -8 -10 -17 -17 -16 -13
-17 -12 -4 4 13 16 21 21 21 13z m-100 -99 c0 -2 -10 -12 -22 -23 l-23 -19 19
23 c18 21 26 27 26 19z m-150 -150 c0 -2 -12 -14 -27 -28 l-28 -24 24 28 c23
25 31 32 31 24z m-80 -80 c0 -2 -10 -12 -22 -23 l-23 -19 19 23 c18 21 26 27
26 19z m2000 -11 c0 -2 -8 -10 -17 -17 -16 -13 -17 -12 -4 4 13 16 21 21 21
13z m-437 -383 c-13 -2 -33 -2 -45 0 -13 2 -3 4 22 4 25 0 35 -2 23 -4z
m-2643 -678 c0 -2 -10 -9 -22 -15 -22 -11 -22 -10 -4 4 21 17 26 19 26 11z
m-213 -41 c-3 -3 -12 -4 -19 -1 -8 3 -5 6 6 6 11 1 17 -2 13 -5z"/>
<path d="M7064 5911 c-23 -10 -54 -36 -70 -57 l-29 -37 0 -1913 0 -1912 31
-39 c16 -21 52 -49 80 -63 l49 -25 421 -3 c274 -2 442 0 480 7 65 12 117 48
149 102 20 34 20 52 20 1929 l0 1895 -21 39 c-11 22 -27 42 -35 45 -12 3 -12
1 1 -15 14 -17 14 -18 -2 -6 -10 8 -16 19 -15 25 1 6 -14 19 -33 29 -32 17
-74 18 -510 18 -442 0 -478 -2 -516 -19z m134 2 c-16 -2 -40 -2 -55 0 -16 2
-3 4 27 4 30 0 43 -2 28 -4z m89 1 c-3 -3 -12 -4 -19 -1 -8 3 -5 6 6 6 11 1
17 -2 13 -5z m71 -1 c-10 -2 -28 -2 -40 0 -13 2 -5 4 17 4 22 1 32 -1 23 -4z
m190 0 c-15 -2 -42 -2 -60 0 -18 2 -6 4 27 4 33 0 48 -2 33 -4z m320 0 c-32
-2 -86 -2 -120 0 -35 2 -9 3 57 3 66 0 94 -1 63 -3z m140 0 c-16 -2 -40 -2
-55 0 -16 2 -3 4 27 4 30 0 43 -2 28 -4z m69 -9 c-3 -3 -12 -4 -19 -1 -8 3 -5
6 6 6 11 1 17 -2 13 -5z m-60 -4020 c-3 -3 -12 -4 -19 -1 -8 3 -5 6 6 6 11 1
17 -2 13 -5z"/>
<path d="M5895 4770 c-321 -4 -446 -8 -461 -17 -34 -19 -72 -70 -84 -111 -8
-26 -10 -436 -8 -1348 l3 -1311 29 -37 c16 -21 48 -47 72 -58 41 -18 71 -19
496 -18 273 0 467 4 490 11 43 11 105 70 116 108 4 14 7 618 7 1342 l0 1315
-28 42 c-31 48 -83 78 -147 83 -25 2 -243 2 -485 -1z m-252 -17 c-7 -2 -19 -2
-25 0 -7 3 -2 5 12 5 14 0 19 -2 13 -5z m124 0 c-20 -2 -52 -2 -70 0 -17 2 0
4 38 4 39 0 53 -2 32 -4z m116 0 c-13 -2 -35 -2 -50 0 -16 2 -5 4 22 4 28 0
40 -2 28 -4z m80 0 c-7 -2 -19 -2 -25 0 -7 3 -2 5 12 5 14 0 19 -2 13 -5z
m160 0 c-13 -2 -33 -2 -45 0 -13 2 -3 4 22 4 25 0 35 -2 23 -4z m90 0 c-13 -2
-33 -2 -45 0 -13 2 -3 4 22 4 25 0 35 -2 23 -4z m54 1 c-3 -3 -12 -4 -19 -1
-8 3 -5 6 6 6 11 1 17 -2 13 -5z m61 -1 c-10 -2 -26 -2 -35 0 -10 3 -2 5 17 5
19 0 27 -2 18 -5z m163 -40 c13 -16 12 -17 -3 -4 -10 7 -18 15 -18 17 0 8 8 3
21 -13z m-1134 -566 c-1 -84 -3 -12 -3 158 0 171 2 239 3 152 2 -87 2 -227 0
-310z m0 -244 c-2 -16 -4 -5 -4 22 0 28 2 40 4 28 2 -13 2 -35 0 -50z m0 -646
c-1 -111 -2 -17 -2 208 0 226 1 316 2 202 2 -115 2 -299 0 -410z m0 -339 c-2
-13 -4 -3 -4 22 0 25 2 35 4 23 2 -13 2 -33 0 -45z m0 -315 c-1 -54 -3 -10 -3
97 0 107 2 151 3 98 2 -54 2 -142 0 -195z m0 -155 c-3 -8 -6 -5 -6 6 -1 11 2
17 5 13 3 -3 4 -12 1 -19z m0 -40 c-3 -8 -6 -5 -6 6 -1 11 2 17 5 13 3 -3 4
-12 1 -19z m0 -130 c-2 -24 -4 -7 -4 37 0 44 2 63 4 43 2 -21 2 -57 0 -80z m0
-100 c-2 -13 -4 -5 -4 17 -1 22 1 32 4 23 2 -10 2 -28 0 -40z m0 -110 c-2 -13
-4 -3 -4 22 0 25 2 35 4 23 2 -13 2 -33 0 -45z m1180 -50 c-3 -8 -6 -5 -6 6
-1 11 2 17 5 13 3 -3 4 -12 1 -19z m-1132 -78 c10 -11 16 -20 13 -20 -3 0 -13
9 -23 20 -10 11 -16 20 -13 20 3 0 13 -9 23 -20z"/>
<path d="M3795 4353 c-35 -9 -84 -53 -105 -93 -20 -38 -20 -60 -20 -1142 0
-1062 1 -1105 19 -1145 12 -26 35 -52 62 -70 l43 -28 465 -3 c476 -3 523 0
563 35 10 9 15 20 12 25 -3 4 0 7 7 6 6 -2 21 13 33 32 l21 35 0 1110 0 1110
-25 44 c-17 30 -40 52 -69 68 l-44 23 -471 -1 c-259 -1 -480 -4 -491 -6z m348
-10 c-57 -2 -149 -2 -205 0 -57 1 -11 3 102 3 113 0 159 -2 103 -3z m365 0
c-49 -2 -127 -2 -175 0 -49 1 -9 3 87 3 96 0 136 -2 88 -3z m200 0 c-21 -2
-55 -2 -75 0 -21 2 -4 4 37 4 41 0 58 -2 38 -4z m133 -50 c13 -16 12 -17 -3
-4 -10 7 -18 15 -18 17 0 8 8 3 21 -13z m36 -190 c-2 -21 -4 -4 -4 37 0 41 2
58 4 38 2 -21 2 -55 0 -75z m0 -160 c-2 -16 -4 -5 -4 22 0 28 2 40 4 28 2 -13
2 -35 0 -50z m0 -195 c-2 -13 -4 -5 -4 17 -1 22 1 32 4 23 2 -10 2 -28 0 -40z
m0 -50 c-3 -8 -6 -5 -6 6 -1 11 2 17 5 13 3 -3 4 -12 1 -19z m0 -80 c-2 -13
-4 -3 -4 22 0 25 2 35 4 23 2 -13 2 -33 0 -45z m0 -80 c-3 -7 -5 -2 -5 12 0
14 2 19 5 13 2 -7 2 -19 0 -25z m0 -60 c-3 -8 -6 -5 -6 6 -1 11 2 17 5 13 3
-3 4 -12 1 -19z m0 -190 c-3 -8 -6 -5 -6 6 -1 11 2 17 5 13 3 -3 4 -12 1 -19z
m0 -55 c-3 -10 -5 -4 -5 12 0 17 2 24 5 18 2 -7 2 -21 0 -30z m0 -80 c-3 -10
-5 -2 -5 17 0 19 2 27 5 18 2 -10 2 -26 0 -35z m0 -95 c-2 -13 -4 -3 -4 22 0
25 2 35 4 23 2 -13 2 -33 0 -45z m0 -60 c-3 -7 -5 -2 -5 12 0 14 2 19 5 13 2
-7 2 -19 0 -25z m0 -50 c-3 -7 -5 -2 -5 12 0 14 2 19 5 13 2 -7 2 -19 0 -25z
m0 -85 c-2 -16 -4 -5 -4 22 0 28 2 40 4 28 2 -13 2 -35 0 -50z m0 -65 c-3 -8
-6 -5 -6 6 -1 11 2 17 5 13 3 -3 4 -12 1 -19z m0 -90 c-3 -7 -5 -2 -5 12 0 14
2 19 5 13 2 -7 2 -19 0 -25z m0 -50 c-3 -7 -5 -2 -5 12 0 14 2 19 5 13 2 -7 2
-19 0 -25z m0 -175 c-2 -16 -4 -3 -4 27 0 30 2 43 4 28 2 -16 2 -40 0 -55z m0
-55 c-3 -8 -6 -5 -6 6 -1 11 2 17 5 13 3 -3 4 -12 1 -19z m0 -130 c-3 -7 -5
-2 -5 12 0 14 2 19 5 13 2 -7 2 -19 0 -25z m0 -190 c-3 -7 -5 -2 -5 12 0 14 2
19 5 13 2 -7 2 -19 0 -25z m0 -85 c-3 -10 -5 -4 -5 12 0 17 2 24 5 18 2 -7 2
-21 0 -30z m-1180 -25 c-3 -8 -6 -5 -6 6 -1 11 2 17 5 13 3 -3 4 -12 1 -19z"/>
<path d="M2155 3551 c-51 -13 -75 -31 -106 -79 l-29 -46 1 -700 c0 -706 3
-775 36 -769 6 1 21 -10 34 -25 l24 -27 -27 24 c-16 14 -28 20 -28 14 0 -15
32 -41 73 -58 31 -13 105 -15 499 -15 521 0 516 0 574 76 l29 37 3 707 c2 569
0 714 -11 746 -7 21 -18 38 -24 37 -6 -1 -19 8 -29 20 l-19 22 24 -20 c17 -14
23 -16 19 -5 -2 8 -24 26 -49 40 l-44 25 -460 2 c-253 1 -473 -2 -490 -6z
m-55 -45 c0 -2 -8 -10 -17 -17 -16 -13 -17 -12 -4 4 13 16 21 21 21 13z m1117
-1518 c-3 -7 -5 -2 -5 12 0 14 2 19 5 13 2 -7 2 -19 0 -25z"/>
</g>
</svg>
