<svg version="1.1" id="Layer_1" xmlns="http://www.w3.org/2000/svg" xmlns:xlink="http://www.w3.org/1999/xlink" x="0px" y="0px"
	 width="100%" viewBox="0 0 288 224" enable-background="new 0 0 288 224" xml:space="preserve">
<path fill="#000000" opacity="1.000000" stroke="none" 
	d="
M103.234673,40.589844 
	C116.895561,43.528446 129.781891,47.265709 141.455109,54.487396 
	C149.009216,59.160774 152.653641,65.112083 152.523804,74.546272 
	C152.033234,110.188583 152.315414,145.841431 152.280930,181.490326 
	C152.279068,183.424881 152.679993,185.461075 151.678131,187.110397 
	C149.953964,187.885284 148.827744,187.106064 147.739777,186.341507 
	C133.307983,176.199646 116.802719,171.900269 99.701294,169.297195 
	C95.097816,168.596466 90.491539,167.639023 85.861137,167.461288 
	C80.347786,167.249680 77.701965,164.223373 76.554382,159.413055 
	C76.020668,157.175903 75.872314,154.802322 75.868134,152.490021 
	C75.805557,117.840706 75.786140,83.191292 75.781532,48.541908 
	C75.780388,39.906422 79.422592,36.957447 88.015236,38.365170 
	C92.932480,39.170750 97.879692,39.793472 103.234673,40.589844 
z"/>
<path fill="#000000" opacity="1.000000" stroke="none" 
	d="
M199.873077,172.981018 
	C188.172241,176.026733 176.889847,178.993118 167.286255,186.116394 
	C166.231323,186.898865 165.145569,187.939240 163.697449,187.146851 
	C162.034363,186.236801 162.582214,184.580109 162.522598,183.117432 
	C161.368271,154.796555 163.127670,126.479347 162.621017,98.158325 
	C162.469025,89.661835 162.809570,81.154167 162.556778,72.662567 
	C162.340698,65.403862 165.565842,60.215084 171.237930,56.237095 
	C183.505844,47.633293 197.402023,43.245113 211.981735,40.702641 
	C217.380020,39.761269 222.805878,38.977203 228.220688,38.131275 
	C234.934280,37.082436 238.365158,39.938877 238.368256,46.762283 
	C238.385178,83.926079 238.378265,121.089905 238.340454,158.253677 
	C238.333359,165.235672 235.750214,167.682388 228.869919,168.290527 
	C219.241104,169.141602 209.740158,170.913757 199.873077,172.981018 
z"/>
<path fill="#000000" opacity="1.000000" stroke="none" 
	d="
M94.000122,197.342194 
	C83.670494,197.345367 73.840752,197.381042 64.011337,197.339111 
	C56.152912,197.305588 52.673164,193.856674 52.671467,186.138153 
	C52.662777,146.653107 52.669868,107.168068 52.681442,67.683029 
	C52.682072,65.533737 52.432999,63.338783 53.766525,61.396706 
	C55.202717,59.305126 57.185604,58.148525 59.682594,58.328415 
	C62.395615,58.523872 64.488304,59.990078 65.227379,62.650898 
	C65.752556,64.541656 65.903290,66.589973 65.896683,68.566887 
	C65.793633,99.381920 65.653397,130.196884 65.483902,161.011627 
	C65.435516,169.809021 71.024437,175.946960 79.886284,176.954666 
	C98.627579,179.085785 117.112747,182.343246 134.468033,190.192825 
	C136.208008,190.979782 138.417557,191.217133 139.223892,193.518875 
	C138.169815,196.298065 135.722672,196.075531 133.430923,196.318420 
	C120.479477,197.690964 107.483101,197.241058 94.000122,197.342194 
z"/>
<path fill="#000000" opacity="1.000000" stroke="none" 
	d="
M262.189728,127.000000 
	C262.177979,146.652802 262.191162,165.805649 262.142334,184.958359 
	C262.119598,193.873672 258.674561,197.150803 249.711319,197.310455 
	C225.727814,197.737656 201.769440,196.669083 177.801193,196.193497 
	C176.690796,196.171478 175.452042,196.463974 174.255524,195.084412 
	C175.123672,192.369431 177.832047,191.607101 180.047058,190.510895 
	C192.868851,184.165421 206.736237,181.347824 220.660202,178.816864 
	C225.564041,177.925507 230.544907,177.459274 235.489319,176.789536 
	C243.566299,175.695450 249.643097,168.888351 249.647156,160.840881 
	C249.662613,130.196320 249.652863,99.551750 249.654434,68.907188 
	C249.654510,67.408363 249.652573,65.909096 249.685989,64.410805 
	C249.764832,60.876263 251.631851,58.724667 255.059296,58.307789 
	C258.575775,57.880081 260.761871,59.977985 261.734406,63.102592 
	C262.262115,64.798096 262.165222,66.721153 262.167877,68.541824 
	C262.196075,87.861183 262.187622,107.180603 262.189728,127.000000 
z"/>
</svg>