<svg version="1.1" id="Layer_1" xmlns="http://www.w3.org/2000/svg" xmlns:xlink="http://www.w3.org/1999/xlink" x="0px" y="0px"
	 width="100%" viewBox="0 0 272 256" enable-background="new 0 0 272 256" xml:space="preserve">
<path fill="#000000" opacity="1.000000" stroke="none" 
	d="
M191.999771,234.404694 
	C151.008636,234.392822 110.517517,234.390350 70.026405,234.364624 
	C59.653030,234.358032 53.751858,228.793884 53.764488,218.456604 
	C53.777428,207.862320 52.302002,197.120560 56.486988,186.835876 
	C63.537575,169.508987 76.910172,158.883362 93.495293,151.649979 
	C113.275612,143.023087 134.032700,141.893661 155.202011,143.561798 
	C173.152298,144.976273 190.004883,149.778473 204.805786,160.142456 
	C220.541702,171.161148 230.397644,185.683975 229.359985,205.919312 
	C229.129913,210.406204 229.455658,214.919159 229.316711,219.413651 
	C229.038574,228.409439 223.013260,234.264023 213.994370,234.359833 
	C206.830154,234.435944 199.664688,234.394623 191.999771,234.404694 
z"/>
<path fill="#000000" opacity="1.000000" stroke="none" 
	d="
M100.547165,109.305557 
	C88.411560,85.407616 94.080452,57.958565 114.273689,43.702271 
	C139.024323,26.228470 180.334579,35.361507 188.205460,74.480591 
	C193.858429,102.576477 177.441132,127.042175 149.967499,132.764099 
	C131.532990,136.603470 111.358459,127.124382 100.547165,109.305557 
z"/>
</svg>