<svg version="1.1" id="Layer_1" xmlns="http://www.w3.org/2000/svg" xmlns:xlink="http://www.w3.org/1999/xlink" x="0px" y="0px"
	 width="100%" viewBox="0 0 304 288" enable-background="new 0 0 304 288" xml:space="preserve">
<path fill="#000000" opacity="1.000000" stroke="none" 
	d="
M190.372467,70.630142 
	C206.287262,73.882713 221.921158,75.767738 237.782303,75.753433 
	C250.151840,75.742271 251.281662,76.988579 251.279404,89.075241 
	C251.274567,114.900955 251.079865,140.728653 251.338699,166.551758 
	C251.548996,187.530594 246.884125,206.831726 233.722534,223.602936 
	C224.354874,235.539780 212.916824,245.197037 200.149414,253.199936 
	C189.570801,259.830872 178.649521,265.911804 166.874496,270.309265 
	C161.821960,272.196167 156.910751,272.702484 151.846664,270.553009 
	C126.758278,259.904144 103.531570,246.498901 85.537109,225.452545 
	C73.629166,211.524979 67.811157,195.096268 66.723755,177.007568 
	C65.343422,154.046173 66.023491,131.061234 66.504593,108.081245 
	C66.657845,100.761597 66.119949,93.430000 66.129578,86.104179 
	C66.141479,77.058212 67.639404,75.827698 76.498413,75.622986 
	C97.978203,75.126640 119.397354,74.113518 139.973816,66.899551 
	C144.702072,65.241859 149.356888,63.472599 153.734055,61.028103 
	C156.708267,59.367123 159.712830,59.067688 162.779999,60.721115 
	C171.356003,65.344200 180.643600,67.998199 190.372467,70.630142 
M218.927887,216.423355 
	C230.255051,203.203781 235.402283,187.639694 235.598297,170.481522 
	C235.872299,146.495941 235.707260,122.505302 235.722092,98.516830 
	C235.726624,91.197060 235.712646,91.252625 228.324890,90.993423 
	C205.595566,90.195976 183.121536,88.048004 162.172928,78.102089 
	C159.940903,77.042389 157.777557,76.914780 155.457245,77.995911 
	C134.158340,87.919937 111.392967,90.413101 88.296913,90.867104 
	C83.510521,90.961189 82.040085,92.505440 82.081810,97.262260 
	C82.296616,121.748802 82.088181,146.238846 82.256584,170.726074 
	C82.393600,190.648544 89.450829,207.833389 103.801613,221.765839 
	C119.096672,236.615051 137.504028,246.567581 156.886978,254.930267 
	C158.911346,255.803696 160.699295,255.646683 162.627167,254.760345 
	C183.329300,245.242432 203.108566,234.371078 218.927887,216.423355 
z"/>
<path fill="#000000" opacity="1.000000" stroke="none" 
	d="
M97.563431,149.978607 
	C94.897934,138.251114 96.964668,130.083008 103.538185,127.340103 
	C107.215469,135.704163 108.234779,144.801575 110.812141,154.403412 
	C113.825653,150.226334 117.106087,147.273849 121.046844,145.144028 
	C124.893623,143.065002 126.407639,143.648239 126.599266,147.838394 
	C126.941154,155.314651 125.506264,162.444092 118.355324,166.369049 
	C114.549210,168.458099 114.283989,170.537659 116.050003,173.830017 
	C117.052483,175.698914 117.285141,177.990494 119.338257,179.641449 
	C122.081673,175.687271 122.855690,170.302170 127.834572,167.578918 
	C134.343994,176.012527 131.132217,185.984604 132.888641,195.731522 
	C135.995239,192.913971 134.687881,190.113434 135.071457,187.729462 
	C135.417618,185.578003 135.366913,183.076721 137.798309,182.278076 
	C140.143982,181.507584 141.317184,183.718002 142.532822,185.206558 
	C145.744736,189.139542 148.337082,193.498474 148.347534,198.703598 
	C148.358719,204.265060 152.318115,205.558273 156.329697,206.728180 
	C160.374268,207.907715 163.659958,205.480392 166.946106,203.668411 
	C168.021011,203.075729 167.714966,201.563126 167.826309,200.418900 
	C168.490356,193.594025 172.044022,188.262543 176.587402,183.439926 
	C179.416321,180.437119 180.923233,182.219284 181.883942,185.035629 
	C183.092651,188.578979 181.774109,192.221542 181.745560,196.130554 
	C185.096359,195.483734 184.718277,193.116547 184.722382,191.092194 
	C184.735565,184.600006 184.402771,178.074356 186.750732,171.838669 
	C187.379150,170.169739 187.769028,168.003403 190.061584,167.981003 
	C192.165237,167.960434 193.186539,169.784470 193.932755,171.449615 
	C195.142548,174.149277 196.128357,176.949310 197.369919,180.118439 
	C200.418411,177.350388 201.403992,173.850632 202.446182,170.500092 
	C203.193115,168.098694 200.687881,167.616516 199.298920,166.620850 
	C192.647354,161.852676 189.436752,152.659149 192.002670,144.528259 
	C198.686829,146.041580 203.478897,149.801559 206.760529,156.458115 
	C209.367126,146.598053 209.981079,136.663712 213.569336,127.154900 
	C219.460129,128.907669 220.075638,133.791611 220.653412,137.925629 
	C221.850784,146.493088 219.691315,154.507492 214.319778,161.410263 
	C212.432770,163.835190 210.951096,166.277206 210.697693,169.703323 
	C215.874817,167.574921 219.784744,163.458145 225.294632,162.003540 
	C227.367920,165.461929 226.131332,168.652725 224.840836,171.592056 
	C221.240341,179.792816 214.497330,184.619202 206.186844,186.924057 
	C202.402969,187.973495 200.277466,190.059708 198.084595,193.408035 
	C203.193344,194.097748 208.060410,193.650558 212.621292,195.222260 
	C211.096085,201.051208 203.447769,206.514267 195.795166,207.151321 
	C193.151489,207.371399 190.448410,207.357834 187.810928,207.082596 
	C179.899246,206.256973 176.745056,206.922974 169.604858,211.406097 
	C172.964432,212.968689 176.335861,214.371887 179.537476,216.091309 
	C181.295761,217.035614 184.212372,218.067490 182.483475,220.793610 
	C180.982101,223.160950 179.037735,226.181625 175.263336,224.274887 
	C171.251816,222.248383 167.264481,220.157150 163.384415,217.892288 
	C159.869080,215.840363 156.698227,215.792755 153.208786,218.104874 
	C149.748337,220.397766 145.917816,222.123581 142.350906,224.266708 
	C138.633774,226.500061 136.630859,224.056976 135.066391,221.483826 
	C133.302475,218.582672 135.932068,217.205658 137.907028,216.145966 
	C140.777100,214.605957 143.858414,213.459610 147.831467,211.714050 
	C141.726456,208.750977 137.410217,205.012787 130.514481,206.723190 
	C122.019585,208.830261 113.951881,206.760147 107.522041,200.272888 
	C106.275017,199.014725 104.664200,197.883179 104.802757,195.357651 
	C109.007530,192.908875 113.996223,194.197632 119.058922,193.375259 
	C117.551033,189.859726 115.424149,188.117355 112.114738,187.227859 
	C103.156410,184.820023 96.234497,179.733322 92.308662,171.077118 
	C91.549133,169.402435 90.930138,167.669266 91.021660,165.784561 
	C91.172470,162.679367 92.524406,161.392715 95.510948,163.056656 
	C98.973839,164.985992 102.372879,167.029907 106.705788,169.551422 
	C104.971001,161.895737 98.615952,157.346375 97.563431,149.978607 
z"/>
<path fill="#000000" opacity="1.000000" stroke="none" 
	d="
M145.628143,154.097610 
	C141.212952,153.811005 140.905640,150.773712 142.292236,148.418045 
	C147.415787,139.713806 144.882721,133.460129 137.270950,127.828468 
	C134.147705,125.517693 135.066971,123.443932 138.965408,122.645424 
	C140.267944,122.378632 141.638580,121.814522 142.884445,122.003540 
	C150.664429,123.183945 153.430450,118.513260 154.860840,112.094368 
	C155.075134,111.132698 155.530487,110.213394 155.955048,109.312546 
	C156.619873,107.901939 157.495880,106.697182 159.305008,106.815857 
	C160.880264,106.919197 161.601486,108.072632 162.090073,109.335854 
	C162.869354,111.350746 163.834351,113.362007 164.178909,115.463654 
	C165.096786,121.062431 168.807129,122.617699 173.775024,122.639359 
	C174.773621,122.643715 175.773117,122.630997 176.770569,122.669090 
	C178.779053,122.745781 181.057526,122.732735 181.916794,124.888451 
	C182.835449,127.193138 180.925247,128.490265 179.341217,129.748032 
	C178.168747,130.679031 177.130798,131.827133 175.853226,132.569031 
	C172.127625,134.732483 171.623596,137.661209 173.077713,141.488831 
	C173.955872,143.800415 174.508713,146.293518 174.808334,148.753677 
	C175.280563,152.631134 172.454620,154.851212 169.860580,152.350906 
	C160.982040,143.793167 153.607742,148.618652 145.628143,154.097610 
z"/>
<path fill="#000000" opacity="1.000000" stroke="none" 
	d="
M113.903870,124.064835 
	C116.940559,119.802490 120.870911,117.547745 125.461258,116.211174 
	C128.901550,115.209457 130.344696,116.707344 129.826111,119.907707 
	C128.354523,128.989532 124.149353,136.478912 116.092720,141.324753 
	C112.213753,143.657852 110.333504,142.605865 109.901581,137.950516 
	C109.442230,132.999542 110.909096,128.470108 113.903870,124.064835 
z"/>
<path fill="#000000" opacity="1.000000" stroke="none" 
	d="
M198.743607,119.051300 
	C205.065643,124.133904 207.763367,130.501129 207.226929,138.145126 
	C206.939484,142.240982 205.060364,143.243195 201.632599,141.130310 
	C194.164185,136.526764 189.620331,129.705399 187.836487,121.195572 
	C186.884842,116.655724 188.531067,115.306152 192.938599,116.569557 
	C194.833221,117.112640 196.609970,118.066978 198.743607,119.051300 
z"/>
</svg>