<svg version="1.1" id="Layer_1" xmlns="http://www.w3.org/2000/svg" xmlns:xlink="http://www.w3.org/1999/xlink" x="0px" y="0px"
	 width="100%" viewBox="0 0 256 208" enable-background="new 0 0 256 208" xml:space="preserve">
<path fill="#000000" opacity="1.000000" stroke="none" 
	d="
M185.999969,179.222015 
	C143.193268,179.231720 100.886566,179.241653 58.579872,179.250626 
	C43.078175,179.253906 32.865040,169.151459 32.849422,153.609055 
	C32.816788,121.129601 32.838463,88.650017 32.895664,56.170593 
	C32.921276,41.629559 42.869522,31.711319 57.370872,31.705738 
	C110.004448,31.685488 162.638031,31.686573 215.271622,31.698002 
	C227.250809,31.700603 237.300552,41.300762 237.371231,52.908386 
	C237.576080,86.548576 237.762253,120.189041 237.852905,153.829681 
	C237.893982,169.073502 227.820999,179.070038 212.483002,179.204758 
	C203.822601,179.280807 195.161026,179.220657 185.999969,179.222015 
M124.056870,73.480888 
	C122.526451,72.475670 121.027390,71.418350 119.459961,70.474609 
	C113.868698,67.108139 108.506187,69.729530 108.435768,76.313087 
	C108.227432,95.789261 108.224792,115.270561 108.435928,134.746658 
	C108.507027,141.305084 113.944038,143.867004 119.391121,140.375854 
	C133.963165,131.036316 148.533081,121.693481 163.111710,112.364250 
	C170.550064,107.604271 170.635620,102.754364 163.157166,98.014610 
	C150.365402,89.907356 137.492905,81.927483 124.056870,73.480888 
z"/>
</svg>